<?xml version="1.0" encoding="UTF-8"?><svg xmlns="http://www.w3.org/2000/svg" xmlns:xlink="http://www.w3.org/1999/xlink" fill-opacity="1" color-rendering="auto" color-interpolation="auto" text-rendering="auto" stroke="black" stroke-linecap="square" width="984" stroke-miterlimit="10" shape-rendering="auto" stroke-opacity="1" fill="black" stroke-dasharray="none" font-weight="normal" stroke-width="1" height="562" font-family="'Dialog'" font-style="normal" stroke-linejoin="miter" font-size="12px" stroke-dashoffset="0" image-rendering="auto">
  <!--Generated by ySVG 2.6-->
  <defs id="genericDefs"/>
  <g>
    <defs id="defs1">
      <clipPath clipPathUnits="userSpaceOnUse" id="clipPath1">
        <path d="M0 0 L984 0 L984 562 L0 562 L0 0 Z"/>
      </clipPath>
      <clipPath clipPathUnits="userSpaceOnUse" id="clipPath2">
        <path d="M-122 -36 L862 -36 L862 526 L-122 526 L-122 -36 Z"/>
      </clipPath>
      <clipPath clipPathUnits="userSpaceOnUse" id="clipPath3">
        <path d="M-17 275 L-17 303 L137 303 L137 275 Z"/>
      </clipPath>
      <clipPath clipPathUnits="userSpaceOnUse" id="clipPath4">
        <path d="M104 99 L104 249 L258 249 L258 99 Z"/>
      </clipPath>
      <clipPath clipPathUnits="userSpaceOnUse" id="clipPath5">
        <path d="M523 112 L523 246 L677 246 L677 112 Z"/>
      </clipPath>
      <clipPath clipPathUnits="userSpaceOnUse" id="clipPath6">
        <path d="M523 316 L523 344 L677 344 L677 316 Z"/>
      </clipPath>
      <clipPath clipPathUnits="userSpaceOnUse" id="clipPath7">
        <path d="M703 316 L703 344 L857 344 L857 316 Z"/>
      </clipPath>
      <clipPath clipPathUnits="userSpaceOnUse" id="clipPath8">
        <path d="M15 366 L15 394 L169 394 L169 366 Z"/>
      </clipPath>
      <clipPath clipPathUnits="userSpaceOnUse" id="clipPath9">
        <path d="M199 366 L199 394 L353 394 L353 366 Z"/>
      </clipPath>
      <clipPath clipPathUnits="userSpaceOnUse" id="clipPath10">
        <path d="M563 477 L563 505 L743 505 L743 477 Z"/>
      </clipPath>
      <clipPath clipPathUnits="userSpaceOnUse" id="clipPath11">
        <path d="M388 477 L388 505 L558 505 L558 477 Z"/>
      </clipPath>
      <clipPath clipPathUnits="userSpaceOnUse" id="clipPath12">
        <path d="M216 477 L216 505 L370 505 L370 477 Z"/>
      </clipPath>
    </defs>
    <g fill="white" text-rendering="geometricPrecision" shape-rendering="geometricPrecision" transform="translate(122,36)" stroke="white">
      <rect x="-122" width="984" height="562" y="-36" clip-path="url(#clipPath2)" stroke="none"/>
    </g>
    <g fill="rgb(255,204,0)" text-rendering="geometricPrecision" shape-rendering="geometricPrecision" transform="matrix(1,0,0,1,122,36)" stroke="rgb(255,204,0)">
      <rect x="83" width="197" height="18" y="51" clip-path="url(#clipPath2)" stroke="none"/>
    </g>
    <g text-rendering="geometricPrecision" stroke-miterlimit="1.45" shape-rendering="geometricPrecision" transform="matrix(1,0,0,1,122,36)" stroke-linecap="butt">
      <rect fill="none" x="83" width="197" height="18" y="51" clip-path="url(#clipPath2)"/>
      <text x="95.4492" xml:space="preserve" y="64.7139" clip-path="url(#clipPath2)" font-family="sans-serif" stroke="none">&lt;&lt;No Class&gt;&gt; Model Main Loop</text>
    </g>
    <g fill="rgb(255,204,0)" text-rendering="geometricPrecision" shape-rendering="geometricPrecision" transform="matrix(1,0,0,1,122,36)" stroke="rgb(255,204,0)">
      <rect x="-16" width="152" height="26" y="276" clip-path="url(#clipPath2)" stroke="none"/>
      <rect x="-17" y="275" clip-path="url(#clipPath2)" fill="yellow" width="1" height="28" stroke="none"/>
      <rect x="-16" y="275" clip-path="url(#clipPath2)" fill="yellow" width="152" height="1" stroke="none"/>
      <rect x="-16" y="302" clip-path="url(#clipPath2)" fill="rgb(178,142,0)" width="153" height="1" stroke="none"/>
      <rect x="136" y="275" clip-path="url(#clipPath2)" fill="rgb(178,142,0)" width="1" height="27" stroke="none"/>
    </g>
    <g font-size="13px" stroke-linecap="butt" transform="matrix(1,0,0,1,122,36)" text-rendering="geometricPrecision" font-family="sans-serif" shape-rendering="geometricPrecision" font-weight="bold" stroke-miterlimit="1.45">
      <text x="7.27" xml:space="preserve" y="293.1416" clip-path="url(#clipPath3)" stroke="none">CSVBufferQueue</text>
    </g>
    <g fill="rgb(255,204,0)" text-rendering="geometricPrecision" shape-rendering="geometricPrecision" transform="matrix(1,0,0,1,122,36)" stroke="rgb(255,204,0)">
      <rect x="105" width="152" height="148" y="100" clip-path="url(#clipPath2)" stroke="none"/>
      <rect x="104" y="99" clip-path="url(#clipPath2)" fill="yellow" width="1" height="150" stroke="none"/>
      <rect x="105" y="99" clip-path="url(#clipPath2)" fill="yellow" width="152" height="1" stroke="none"/>
      <rect x="105" y="248" clip-path="url(#clipPath2)" fill="rgb(178,142,0)" width="153" height="1" stroke="none"/>
      <rect x="257" y="99" clip-path="url(#clipPath2)" fill="rgb(178,142,0)" width="1" height="149" stroke="none"/>
    </g>
    <g font-size="13px" stroke-linecap="butt" transform="matrix(1,0,0,1,122,36)" text-rendering="geometricPrecision" font-family="sans-serif" shape-rendering="geometricPrecision" font-weight="bold" stroke-miterlimit="1.45">
      <text x="115.7668" xml:space="preserve" y="117.0698" clip-path="url(#clipPath4)" stroke="none">AbstractBufferQueue</text>
    </g>
    <g text-rendering="geometricPrecision" shape-rendering="geometricPrecision" transform="matrix(1,0,0,1,122,36)">
      <line y2="124" fill="none" x1="105" clip-path="url(#clipPath4)" x2="257" y1="124"/>
      <text stroke-linecap="butt" x="109.5" y="141.9907" clip-path="url(#clipPath4)" font-family="sans-serif" stroke="none" stroke-miterlimit="1.45" xml:space="preserve">/ name</text>
      <line y2="149" fill="none" x1="105" clip-path="url(#clipPath4)" x2="257" y1="149"/>
      <text stroke-linecap="butt" x="109.5" y="166.6919" clip-path="url(#clipPath4)" font-family="sans-serif" stroke="none" stroke-miterlimit="1.45" xml:space="preserve">+ on_full</text>
      <text stroke-linecap="butt" x="109.5" y="181.3931" clip-path="url(#clipPath4)" font-family="sans-serif" stroke="none" stroke-miterlimit="1.45" xml:space="preserve">+ append</text>
      <text stroke-linecap="butt" x="109.5" y="196.0942" clip-path="url(#clipPath4)" font-family="sans-serif" stroke="none" stroke-miterlimit="1.45" xml:space="preserve">+ sample</text>
      <text stroke-linecap="butt" x="109.5" y="210.7954" clip-path="url(#clipPath4)" font-family="sans-serif" stroke="none" stroke-miterlimit="1.45" xml:space="preserve">+ close</text>
      <text stroke-linecap="butt" x="109.5" y="225.4966" clip-path="url(#clipPath4)" font-family="sans-serif" stroke="none" stroke-miterlimit="1.45" xml:space="preserve">+ transition</text>
      <text stroke-linecap="butt" x="109.5" y="240.1978" clip-path="url(#clipPath4)" font-family="sans-serif" stroke="none" stroke-miterlimit="1.45" xml:space="preserve">+ open_job</text>
      <path fill="rgb(255,204,0)" d="M-117 83 L65 83 L65 98 L80 98 L80 169 L-117 169 Z" clip-path="url(#clipPath2)" stroke="none"/>
      <path fill="white" d="M65 83 L65 98 L80 98 Z" clip-path="url(#clipPath2)" fill-rule="evenodd" stroke="none"/>
      <path fill="none" stroke-miterlimit="1.45" d="M-117 83 L65 83 L65 98 L80 98 L80 169 L-117 169 Z" clip-path="url(#clipPath2)" stroke-linecap="butt"/>
      <path fill="none" stroke-miterlimit="1.45" d="M65 83 L65 98 L80 98 Z" fill-rule="evenodd" clip-path="url(#clipPath2)" stroke-linecap="butt"/>
      <text stroke-linecap="butt" x="-55.8535" y="116.0127" clip-path="url(#clipPath2)" font-family="sans-serif" stroke="none" stroke-miterlimit="1.45" xml:space="preserve">Only used are</text>
      <text stroke-linecap="butt" x="-46.8447" y="130.7139" clip-path="url(#clipPath2)" font-family="sans-serif" stroke="none" stroke-miterlimit="1.45" xml:space="preserve">CSVBuffer</text>
      <text stroke-linecap="butt" x="-67.5254" y="145.415" clip-path="url(#clipPath2)" font-family="sans-serif" stroke="none" stroke-miterlimit="1.45" xml:space="preserve">and CameraBuffer</text>
      <path fill="rgb(255,204,0)" d="M400 -30.25 L485 -30.25 L485 -15.25 L500 -15.25 L500 -2.25 L400 -2.25 Z" clip-path="url(#clipPath2)" stroke="none"/>
      <path fill="white" d="M485 -30.25 L485 -15.25 L500 -15.25 Z" clip-path="url(#clipPath2)" fill-rule="evenodd" stroke="none"/>
      <path fill="none" stroke-miterlimit="1.45" d="M400 -30.25 L485 -30.25 L485 -15.25 L500 -15.25 L500 -2.25 L400 -2.25 Z" clip-path="url(#clipPath2)" stroke-linecap="butt"/>
      <path fill="none" stroke-miterlimit="1.45" d="M485 -30.25 L485 -15.25 L500 -15.25 Z" fill-rule="evenodd" clip-path="url(#clipPath2)" stroke-linecap="butt"/>
      <text stroke-linecap="butt" x="437.3262" y="-11.5361" clip-path="url(#clipPath2)" font-family="sans-serif" stroke="none" stroke-miterlimit="1.45" xml:space="preserve">Note</text>
      <rect x="524" y="113" clip-path="url(#clipPath2)" fill="rgb(255,204,0)" width="152" height="132" stroke="none"/>
      <rect x="523" y="112" clip-path="url(#clipPath2)" fill="yellow" width="1" height="134" stroke="none"/>
      <rect x="524" y="112" clip-path="url(#clipPath2)" fill="yellow" width="152" height="1" stroke="none"/>
      <rect x="524" y="245" clip-path="url(#clipPath2)" fill="rgb(178,142,0)" width="153" height="1" stroke="none"/>
      <rect x="676" y="112" clip-path="url(#clipPath2)" fill="rgb(178,142,0)" width="1" height="133" stroke="none"/>
    </g>
    <g font-size="13px" stroke-linecap="butt" transform="matrix(1,0,0,1,122,36)" text-rendering="geometricPrecision" font-family="sans-serif" shape-rendering="geometricPrecision" font-weight="bold" stroke-miterlimit="1.45">
      <text x="551.5959" xml:space="preserve" y="130.9284" clip-path="url(#clipPath5)" stroke="none">AbstractSensor</text>
    </g>
    <g text-rendering="geometricPrecision" shape-rendering="geometricPrecision" transform="matrix(1,0,0,1,122,36)">
      <line y2="138" fill="none" x1="524" clip-path="url(#clipPath5)" x2="676" y1="138"/>
      <text stroke-linecap="butt" x="528" y="155.8493" clip-path="url(#clipPath5)" font-family="sans-serif" stroke="none" stroke-miterlimit="1.45" xml:space="preserve">/ name</text>
      <line y2="163" fill="none" x1="524" clip-path="url(#clipPath5)" x2="676" y1="163"/>
      <text stroke-linecap="butt" x="528" y="180.5504" clip-path="url(#clipPath5)" font-family="sans-serif" stroke="none" stroke-miterlimit="1.45" xml:space="preserve">- __initialize_sensor()</text>
      <text stroke-linecap="butt" x="528" y="195.2516" clip-path="url(#clipPath5)" font-family="sans-serif" stroke="none" stroke-miterlimit="1.45" xml:space="preserve">+ turn_on()</text>
      <text stroke-linecap="butt" x="528" y="209.9528" clip-path="url(#clipPath5)" font-family="sans-serif" stroke="none" stroke-miterlimit="1.45" xml:space="preserve">+ turn_off</text>
      <text stroke-linecap="butt" x="528" y="224.654" clip-path="url(#clipPath5)" font-family="sans-serif" stroke="none" stroke-miterlimit="1.45" xml:space="preserve">+ sample</text>
      <text stroke-linecap="butt" x="528" y="239.3551" clip-path="url(#clipPath5)" font-family="sans-serif" stroke="none" stroke-miterlimit="1.45" xml:space="preserve">+ state_transition</text>
      <rect x="524" y="317" clip-path="url(#clipPath2)" fill="rgb(255,204,0)" width="152" height="26" stroke="none"/>
      <rect x="523" y="316" clip-path="url(#clipPath2)" fill="yellow" width="1" height="28" stroke="none"/>
      <rect x="524" y="316" clip-path="url(#clipPath2)" fill="yellow" width="152" height="1" stroke="none"/>
      <rect x="524" y="343" clip-path="url(#clipPath2)" fill="rgb(178,142,0)" width="153" height="1" stroke="none"/>
      <rect x="676" y="316" clip-path="url(#clipPath2)" fill="rgb(178,142,0)" width="1" height="27" stroke="none"/>
    </g>
    <g font-size="13px" stroke-linecap="butt" transform="matrix(1,0,0,1,122,36)" text-rendering="geometricPrecision" font-family="sans-serif" shape-rendering="geometricPrecision" font-weight="bold" stroke-miterlimit="1.45">
      <text x="552.675" xml:space="preserve" y="334.0698" clip-path="url(#clipPath6)" stroke="none">BMP581Sensor</text>
    </g>
    <g fill="rgb(255,204,0)" text-rendering="geometricPrecision" shape-rendering="geometricPrecision" transform="matrix(1,0,0,1,122,36)" stroke="rgb(255,204,0)">
      <rect x="704" width="152" height="26" y="317" clip-path="url(#clipPath2)" stroke="none"/>
      <rect x="703" y="316" clip-path="url(#clipPath2)" fill="yellow" width="1" height="28" stroke="none"/>
      <rect x="704" y="316" clip-path="url(#clipPath2)" fill="yellow" width="152" height="1" stroke="none"/>
      <rect x="704" y="343" clip-path="url(#clipPath2)" fill="rgb(178,142,0)" width="153" height="1" stroke="none"/>
      <rect x="856" y="316" clip-path="url(#clipPath2)" fill="rgb(178,142,0)" width="1" height="27" stroke="none"/>
    </g>
    <g font-size="13px" stroke-linecap="butt" transform="matrix(1,0,0,1,122,36)" text-rendering="geometricPrecision" font-family="sans-serif" shape-rendering="geometricPrecision" font-weight="bold" stroke-miterlimit="1.45">
      <text x="716.0601" xml:space="preserve" y="334.0698" clip-path="url(#clipPath7)" stroke="none">SpectrometerSensor</text>
      <path fill="none" d="M136.9757 289.0718 L181.5 289.0718 L181.5 263.9821" clip-path="url(#clipPath2)"/>
    </g>
    <g stroke-linecap="butt" transform="matrix(1,0,0,1,122,36)" fill="white" text-rendering="geometricPrecision" shape-rendering="geometricPrecision" stroke="white" stroke-miterlimit="1.45">
      <path d="M181.5 248.9821 L175.5 264.9821 L187.5 264.9821 Z" stroke="none" clip-path="url(#clipPath2)"/>
      <path fill="none" d="M181.5 248.9821 L175.5 264.9821 L187.5 264.9821 Z" clip-path="url(#clipPath2)" stroke="black"/>
      <path fill="none" stroke-dasharray="6,2" d="M181.5 69 L181.5 94.0183" clip-path="url(#clipPath2)" stroke="black"/>
      <path fill="black" stroke-dasharray="6,2" d="M181.5 98.0183 L187.5 86.0183 L181.5 98.0183 L175.5 86.0183 Z" clip-path="url(#clipPath2)" stroke="none"/>
    </g>
    <g text-rendering="geometricPrecision" shape-rendering="geometricPrecision" transform="matrix(1,0,0,1,122,36)">
      <path fill="none" d="M181.5 98.0183 L187.5 86.0183 L181.5 98.0183 L175.5 86.0183 Z" clip-path="url(#clipPath2)"/>
      <text stroke-linecap="butt" x="138.8262" y="88.0645" clip-path="url(#clipPath2)" font-family="sans-serif" stroke="none" stroke-miterlimit="1.45" xml:space="preserve">uses</text>
      <path fill="none" stroke-miterlimit="1.45" stroke-dasharray="6,2" d="M181.5 69 L181.5 78.5927 L600 78.5927 L600 107.9068" clip-path="url(#clipPath2)" stroke-linecap="butt"/>
      <path stroke-miterlimit="1.45" stroke-dasharray="6,2" d="M600 111.9068 L606 99.9068 L600 111.9068 L594 99.9068 Z" clip-path="url(#clipPath2)" stroke-linecap="butt" stroke="none"/>
      <path fill="none" d="M600 111.9068 L606 99.9068 L600 111.9068 L594 99.9068 Z" clip-path="url(#clipPath2)"/>
      <text stroke-linecap="butt" x="557.3262" y="93.2642" clip-path="url(#clipPath2)" font-family="sans-serif" stroke="none" stroke-miterlimit="1.45" xml:space="preserve">uses</text>
      <path fill="none" stroke-miterlimit="1.45" d="M600 315.9766 L600 262.1758" clip-path="url(#clipPath2)" stroke-linecap="butt"/>
    </g>
    <g stroke-linecap="butt" transform="matrix(1,0,0,1,122,36)" fill="white" text-rendering="geometricPrecision" shape-rendering="geometricPrecision" stroke="white" stroke-miterlimit="1.45">
      <path d="M600 247.1758 L594 263.1758 L606 263.1758 Z" stroke="none" clip-path="url(#clipPath2)"/>
      <path fill="none" d="M600 247.1758 L594 263.1758 L606 263.1758 Z" clip-path="url(#clipPath2)" stroke="black"/>
      <path fill="none" d="M780 316.0254 L780 270 L600 270 L600 262.1613" clip-path="url(#clipPath2)" stroke="black"/>
      <path d="M600 247.1613 L594 263.1613 L606 263.1613 Z" clip-path="url(#clipPath2)" stroke="none"/>
      <path fill="none" d="M600 247.1613 L594 263.1613 L606 263.1613 Z" clip-path="url(#clipPath2)" stroke="black"/>
    </g>
    <g fill="rgb(245,245,245)" text-rendering="geometricPrecision" shape-rendering="geometricPrecision" transform="matrix(1,0,0,1,122,36)" stroke="rgb(245,245,245)">
      <rect x="-5.75" y="329.1435" clip-path="url(#clipPath2)" width="374.5" rx="4" ry="4" height="98.3765" stroke="none"/>
      <rect x="-5.75" y="329.1435" clip-path="url(#clipPath2)" fill="rgb(235,235,235)" width="374.5" height="22.3765" stroke="none"/>
    </g>
    <g font-size="15px" stroke-linecap="butt" transform="matrix(1,0,0,1,122,36)" text-rendering="geometricPrecision" font-family="sans-serif" shape-rendering="geometricPrecision" stroke-miterlimit="1.45">
      <text x="174.9873" xml:space="preserve" y="346.2241" clip-path="url(#clipPath2)" stroke="none">Currently unused Collections</text>
      <rect x="-5.75" y="329.1435" clip-path="url(#clipPath2)" fill="none" width="374.5" stroke-dasharray="6,2" rx="4" ry="4" height="98.3765"/>
    </g>
    <g fill="rgb(255,204,0)" text-rendering="geometricPrecision" shape-rendering="geometricPrecision" transform="matrix(1,0,0,1,122,36)" stroke="rgb(255,204,0)">
      <rect x="16" width="152" height="26" y="367" clip-path="url(#clipPath2)" stroke="none"/>
      <rect x="15" y="366" clip-path="url(#clipPath2)" fill="yellow" width="1" height="28" stroke="none"/>
      <rect x="16" y="366" clip-path="url(#clipPath2)" fill="yellow" width="152" height="1" stroke="none"/>
      <rect x="16" y="393" clip-path="url(#clipPath2)" fill="rgb(178,142,0)" width="153" height="1" stroke="none"/>
      <rect x="168" y="366" clip-path="url(#clipPath2)" fill="rgb(178,142,0)" width="1" height="27" stroke="none"/>
    </g>
    <g font-size="13px" stroke-linecap="butt" transform="matrix(1,0,0,1,122,36)" text-rendering="geometricPrecision" font-family="sans-serif" shape-rendering="geometricPrecision" font-weight="bold" stroke-miterlimit="1.45">
      <text x="29.5369" xml:space="preserve" y="384.5898" clip-path="url(#clipPath8)" stroke="none">CameraBufferQueue</text>
    </g>
    <g fill="rgb(255,204,0)" text-rendering="geometricPrecision" shape-rendering="geometricPrecision" transform="matrix(1,0,0,1,122,36)" stroke="rgb(255,204,0)">
      <rect x="200" width="152" height="26" y="367" clip-path="url(#clipPath2)" stroke="none"/>
      <rect x="199" y="366" clip-path="url(#clipPath2)" fill="yellow" width="1" height="28" stroke="none"/>
      <rect x="200" y="366" clip-path="url(#clipPath2)" fill="yellow" width="152" height="1" stroke="none"/>
      <rect x="200" y="393" clip-path="url(#clipPath2)" fill="rgb(178,142,0)" width="153" height="1" stroke="none"/>
      <rect x="352" y="366" clip-path="url(#clipPath2)" fill="rgb(178,142,0)" width="1" height="27" stroke="none"/>
    </g>
    <g font-size="13px" stroke-linecap="butt" transform="matrix(1,0,0,1,122,36)" text-rendering="geometricPrecision" font-family="sans-serif" shape-rendering="geometricPrecision" font-weight="bold" stroke-miterlimit="1.45">
      <text x="210.636" xml:space="preserve" y="384.5898" clip-path="url(#clipPath9)" stroke="none">direct_camera_buffer</text>
    </g>
    <g fill="rgb(255,204,0)" text-rendering="geometricPrecision" shape-rendering="geometricPrecision" transform="matrix(1,0,0,1,122,36)" stroke="rgb(255,204,0)">
      <rect x="320.5" width="139" height="18" y="165" clip-path="url(#clipPath2)" stroke="none"/>
    </g>
    <g text-rendering="geometricPrecision" stroke-miterlimit="1.45" shape-rendering="geometricPrecision" transform="matrix(1,0,0,1,122,36)" stroke-linecap="butt">
      <rect fill="none" x="320.5" width="139" height="18" y="165" clip-path="url(#clipPath2)"/>
      <text x="331.6406" xml:space="preserve" y="178.7139" clip-path="url(#clipPath2)" font-family="sans-serif" stroke="none">Data Access Methods</text>
      <path fill="none" d="M181.5 329.0946 L181.5 264.0103" clip-path="url(#clipPath2)"/>
      <path fill="white" d="M181.5 249.0103 L175.5 265.0103 L187.5 265.0103 Z" clip-path="url(#clipPath2)" stroke="none"/>
      <path fill="none" d="M181.5 249.0103 L175.5 265.0103 L187.5 265.0103 Z" clip-path="url(#clipPath2)"/>
      <path fill="none" stroke-dasharray="6,2" d="M258.4913 174 L315.5 174" clip-path="url(#clipPath2)"/>
      <path stroke-dasharray="6,2" d="M319.5 174 L307.5 168 L319.5 174 L307.5 180 Z" clip-path="url(#clipPath2)" stroke="none"/>
      <path fill="none" stroke-miterlimit="10" d="M319.5 174 L307.5 168 L319.5 174 L307.5 180 Z" clip-path="url(#clipPath2)" stroke-linecap="square"/>
      <text x="286.6631" xml:space="preserve" y="208.7139" clip-path="url(#clipPath2)" font-family="sans-serif" stroke="none">uses</text>
    </g>
    <g fill="rgb(245,245,245)" text-rendering="geometricPrecision" shape-rendering="geometricPrecision" transform="matrix(1,0,0,1,122,36)" stroke="rgb(245,245,245)">
      <rect x="201.5" y="439.8118" clip-path="url(#clipPath2)" width="557" rx="4" ry="4" height="80.3765" stroke="none"/>
      <rect x="201.5" y="439.8118" clip-path="url(#clipPath2)" fill="rgb(235,235,235)" width="557" height="22.3765" stroke="none"/>
    </g>
    <g font-size="15px" stroke-linecap="butt" transform="matrix(1,0,0,1,122,36)" text-rendering="geometricPrecision" font-family="sans-serif" shape-rendering="geometricPrecision" stroke-miterlimit="1.45">
      <text x="487.269" xml:space="preserve" y="456.8923" clip-path="url(#clipPath2)" stroke="none">(Files) Dummy Classes for Development</text>
      <rect x="201.5" y="439.8118" clip-path="url(#clipPath2)" fill="none" width="557" stroke-dasharray="6,2" rx="4" ry="4" height="80.3765"/>
    </g>
    <g fill="rgb(255,204,0)" text-rendering="geometricPrecision" shape-rendering="geometricPrecision" transform="matrix(1,0,0,1,122,36)" stroke="rgb(255,204,0)">
      <rect x="564" width="178" height="26" y="478" clip-path="url(#clipPath2)" stroke="none"/>
      <rect x="563" y="477" clip-path="url(#clipPath2)" fill="yellow" width="1" height="28" stroke="none"/>
      <rect x="564" y="477" clip-path="url(#clipPath2)" fill="yellow" width="178" height="1" stroke="none"/>
      <rect x="564" y="504" clip-path="url(#clipPath2)" fill="rgb(178,142,0)" width="179" height="1" stroke="none"/>
      <rect x="742" y="477" clip-path="url(#clipPath2)" fill="rgb(178,142,0)" width="1" height="27" stroke="none"/>
    </g>
    <g font-size="13px" stroke-linecap="butt" transform="matrix(1,0,0,1,122,36)" text-rendering="geometricPrecision" font-family="sans-serif" shape-rendering="geometricPrecision" font-weight="bold" stroke-miterlimit="1.45">
      <text x="573.3132" xml:space="preserve" y="495.2581" clip-path="url(#clipPath10)" stroke="none">dummy_sawtooth_sensor</text>
    </g>
    <g fill="rgb(255,204,0)" text-rendering="geometricPrecision" shape-rendering="geometricPrecision" transform="matrix(1,0,0,1,122,36)" stroke="rgb(255,204,0)">
      <rect x="389" width="168" height="26" y="478" clip-path="url(#clipPath2)" stroke="none"/>
      <rect x="388" y="477" clip-path="url(#clipPath2)" fill="yellow" width="1" height="28" stroke="none"/>
      <rect x="389" y="477" clip-path="url(#clipPath2)" fill="yellow" width="168" height="1" stroke="none"/>
      <rect x="389" y="504" clip-path="url(#clipPath2)" fill="rgb(178,142,0)" width="169" height="1" stroke="none"/>
      <rect x="557" y="477" clip-path="url(#clipPath2)" fill="rgb(178,142,0)" width="1" height="27" stroke="none"/>
    </g>
    <g font-size="13px" stroke-linecap="butt" transform="matrix(1,0,0,1,122,36)" text-rendering="geometricPrecision" font-family="sans-serif" shape-rendering="geometricPrecision" font-weight="bold" stroke-miterlimit="1.45">
      <text x="393.6624" xml:space="preserve" y="495.2581" clip-path="url(#clipPath11)" stroke="none">dummy_gaussian_sensor</text>
    </g>
    <g fill="rgb(255,204,0)" text-rendering="geometricPrecision" shape-rendering="geometricPrecision" transform="matrix(1,0,0,1,122,36)" stroke="rgb(255,204,0)">
      <rect x="217" width="152" height="26" y="478" clip-path="url(#clipPath2)" stroke="none"/>
      <rect x="216" y="477" clip-path="url(#clipPath2)" fill="yellow" width="1" height="28" stroke="none"/>
      <rect x="217" y="477" clip-path="url(#clipPath2)" fill="yellow" width="152" height="1" stroke="none"/>
      <rect x="217" y="504" clip-path="url(#clipPath2)" fill="rgb(178,142,0)" width="153" height="1" stroke="none"/>
      <rect x="369" y="477" clip-path="url(#clipPath2)" fill="rgb(178,142,0)" width="1" height="27" stroke="none"/>
    </g>
    <g font-size="13px" stroke-linecap="butt" transform="matrix(1,0,0,1,122,36)" text-rendering="geometricPrecision" font-family="sans-serif" shape-rendering="geometricPrecision" font-weight="bold" stroke-miterlimit="1.45">
      <text x="244.001" xml:space="preserve" y="495.2581" clip-path="url(#clipPath12)" stroke="none">dummy_camera</text>
      <path fill="none" d="M480 439.8303 L480 270 L600 270 L600 262.1613" clip-path="url(#clipPath2)"/>
    </g>
    <g stroke-linecap="butt" transform="matrix(1,0,0,1,122,36)" fill="white" text-rendering="geometricPrecision" shape-rendering="geometricPrecision" stroke="white" stroke-miterlimit="1.45">
      <path d="M600 247.1613 L594 263.1613 L606 263.1613 Z" stroke="none" clip-path="url(#clipPath2)"/>
      <path fill="none" d="M600 247.1613 L594 263.1613 L606 263.1613 Z" clip-path="url(#clipPath2)" stroke="black"/>
    </g>
  </g>
</svg>
