<?xml version="1.0" encoding="UTF-8"?><svg xmlns="http://www.w3.org/2000/svg" xmlns:xlink="http://www.w3.org/1999/xlink" fill-opacity="1" color-rendering="auto" color-interpolation="auto" text-rendering="auto" stroke="black" stroke-linecap="square" width="1325" stroke-miterlimit="10" shape-rendering="auto" stroke-opacity="1" fill="black" stroke-dasharray="none" font-weight="normal" stroke-width="1" height="498" font-family="'Dialog'" font-style="normal" stroke-linejoin="miter" font-size="12px" stroke-dashoffset="0" image-rendering="auto">
  <!--Generated by ySVG 2.6-->
  <defs id="genericDefs"/>
  <g>
    <defs id="defs1">
      <linearGradient x1="1843.3921" gradientUnits="userSpaceOnUse" x2="1864.9921" y1="20.9" y2="32.1" id="linearGradient1" spreadMethod="reflect">
        <stop stop-opacity="1" stop-color="rgb(232,238,247)" offset="0%"/>
        <stop stop-opacity="1" stop-color="rgb(183,201,227)" offset="100%"/>
      </linearGradient>
      <linearGradient x1="2020.5924" gradientUnits="userSpaceOnUse" x2="2042.1925" y1="20.9" y2="32.1" id="linearGradient2" spreadMethod="reflect">
        <stop stop-opacity="1" stop-color="rgb(232,238,247)" offset="0%"/>
        <stop stop-opacity="1" stop-color="rgb(183,201,227)" offset="100%"/>
      </linearGradient>
      <linearGradient x1="1843.3921" gradientUnits="userSpaceOnUse" x2="1864.9921" y1="193.5415" y2="204.7415" id="linearGradient3" spreadMethod="reflect">
        <stop stop-opacity="1" stop-color="rgb(232,238,247)" offset="0%"/>
        <stop stop-opacity="1" stop-color="rgb(183,201,227)" offset="100%"/>
      </linearGradient>
      <linearGradient x1="1780.592" gradientUnits="userSpaceOnUse" x2="1927.7921" y1="83" y2="136" id="linearGradient4" spreadMethod="reflect">
        <stop stop-opacity="1" stop-color="rgb(232,238,247)" offset="0%"/>
        <stop stop-opacity="1" stop-color="rgb(183,201,227)" offset="100%"/>
      </linearGradient>
      <linearGradient x1="2020.5924" gradientUnits="userSpaceOnUse" x2="2042.1925" y1="193.5415" y2="204.7415" id="linearGradient5" spreadMethod="reflect">
        <stop stop-opacity="1" stop-color="rgb(232,238,247)" offset="0%"/>
        <stop stop-opacity="1" stop-color="rgb(183,201,227)" offset="100%"/>
      </linearGradient>
      <linearGradient x1="1632.672" gradientUnits="userSpaceOnUse" x2="1763.2319" y1="12.9" y2="40.1" id="linearGradient6" spreadMethod="reflect">
        <stop stop-opacity="1" stop-color="rgb(232,238,247)" offset="0%"/>
        <stop stop-opacity="1" stop-color="rgb(183,201,227)" offset="100%"/>
      </linearGradient>
      <linearGradient x1="1657.952" gradientUnits="userSpaceOnUse" x2="1737.952" y1="179.1415" y2="219.1415" id="linearGradient7" spreadMethod="reflect">
        <stop stop-opacity="1" stop-color="rgb(232,238,247)" offset="0%"/>
        <stop stop-opacity="1" stop-color="rgb(183,201,227)" offset="100%"/>
      </linearGradient>
      <linearGradient x1="2183.793" gradientUnits="userSpaceOnUse" x2="2205.3928" y1="20.9" y2="32.1" id="linearGradient8" spreadMethod="reflect">
        <stop stop-opacity="1" stop-color="rgb(232,238,247)" offset="0%"/>
        <stop stop-opacity="1" stop-color="rgb(183,201,227)" offset="100%"/>
      </linearGradient>
      <linearGradient x1="2126.9321" gradientUnits="userSpaceOnUse" x2="2262.2537" y1="183.0915" y2="215.1915" id="linearGradient9" spreadMethod="reflect">
        <stop stop-opacity="1" stop-color="rgb(232,238,247)" offset="0%"/>
        <stop stop-opacity="1" stop-color="rgb(183,201,227)" offset="100%"/>
      </linearGradient>
      <linearGradient x1="2134.9929" gradientUnits="userSpaceOnUse" x2="2254.1929" y1="253.0915" y2="285.1915" id="linearGradient10" spreadMethod="reflect">
        <stop stop-opacity="1" stop-color="rgb(232,238,247)" offset="0%"/>
        <stop stop-opacity="1" stop-color="rgb(183,201,227)" offset="100%"/>
      </linearGradient>
      <linearGradient x1="2134.9929" gradientUnits="userSpaceOnUse" x2="2254.1929" y1="93.45" y2="125.55" id="linearGradient11" spreadMethod="reflect">
        <stop stop-opacity="1" stop-color="rgb(232,238,247)" offset="0%"/>
        <stop stop-opacity="1" stop-color="rgb(183,201,227)" offset="100%"/>
      </linearGradient>
      <linearGradient x1="2134.9929" gradientUnits="userSpaceOnUse" x2="2254.1929" y1="323.0915" y2="355.1915" id="linearGradient12" spreadMethod="reflect">
        <stop stop-opacity="1" stop-color="rgb(232,238,247)" offset="0%"/>
        <stop stop-opacity="1" stop-color="rgb(183,201,227)" offset="100%"/>
      </linearGradient>
      <linearGradient x1="2183.793" gradientUnits="userSpaceOnUse" x2="2205.3928" y1="403.5415" y2="414.7415" id="linearGradient13" spreadMethod="reflect">
        <stop stop-opacity="1" stop-color="rgb(232,238,247)" offset="0%"/>
        <stop stop-opacity="1" stop-color="rgb(183,201,227)" offset="100%"/>
      </linearGradient>
      <linearGradient x1="1957.7925" gradientUnits="userSpaceOnUse" x2="2104.9924" y1="83" y2="136" id="linearGradient14" spreadMethod="reflect">
        <stop stop-opacity="1" stop-color="rgb(232,238,247)" offset="0%"/>
        <stop stop-opacity="1" stop-color="rgb(183,201,227)" offset="100%"/>
      </linearGradient>
      <linearGradient x1="1645.312" gradientUnits="userSpaceOnUse" x2="1750.592" y1="88.5597" y2="130.4403" id="linearGradient15" spreadMethod="reflect">
        <stop stop-opacity="1" stop-color="rgb(232,238,247)" offset="0%"/>
        <stop stop-opacity="1" stop-color="rgb(183,201,227)" offset="100%"/>
      </linearGradient>
      <linearGradient x1="1642.752" gradientUnits="userSpaceOnUse" x2="1753.152" y1="249.1415" y2="289.1415" id="linearGradient16" spreadMethod="reflect">
        <stop stop-opacity="1" stop-color="rgb(232,238,247)" offset="0%"/>
        <stop stop-opacity="1" stop-color="rgb(183,201,227)" offset="100%"/>
      </linearGradient>
      <linearGradient x1="1657.952" gradientUnits="userSpaceOnUse" x2="1737.952" y1="319.1415" y2="359.1415" id="linearGradient17" spreadMethod="reflect">
        <stop stop-opacity="1" stop-color="rgb(232,238,247)" offset="0%"/>
        <stop stop-opacity="1" stop-color="rgb(183,201,227)" offset="100%"/>
      </linearGradient>
      <linearGradient x1="1651.8719" gradientUnits="userSpaceOnUse" x2="1744.032" y1="389.1415" y2="429.1415" id="linearGradient18" spreadMethod="reflect">
        <stop stop-opacity="1" stop-color="rgb(232,238,247)" offset="0%"/>
        <stop stop-opacity="1" stop-color="rgb(183,201,227)" offset="100%"/>
      </linearGradient>
      <linearGradient x1="1657.952" gradientUnits="userSpaceOnUse" x2="1737.952" y1="459.1415" y2="499.1415" id="linearGradient19" spreadMethod="reflect">
        <stop stop-opacity="1" stop-color="rgb(232,238,247)" offset="0%"/>
        <stop stop-opacity="1" stop-color="rgb(183,201,227)" offset="100%"/>
      </linearGradient>
      <linearGradient x1="1542.3512" gradientUnits="userSpaceOnUse" x2="1563.9512" y1="20.9" y2="32.1" id="linearGradient20" spreadMethod="reflect">
        <stop stop-opacity="1" stop-color="rgb(232,238,247)" offset="0%"/>
        <stop stop-opacity="1" stop-color="rgb(183,201,227)" offset="100%"/>
      </linearGradient>
      <linearGradient x1="1190.6285" gradientUnits="userSpaceOnUse" x2="1212.2285" y1="20.9" y2="32.1" id="linearGradient21" spreadMethod="reflect">
        <stop stop-opacity="1" stop-color="rgb(232,238,247)" offset="0%"/>
        <stop stop-opacity="1" stop-color="rgb(183,201,227)" offset="100%"/>
      </linearGradient>
      <linearGradient x1="1311.9139" gradientUnits="userSpaceOnUse" x2="1459.1139" y1="181.6415" y2="216.6415" id="linearGradient22" spreadMethod="reflect">
        <stop stop-opacity="1" stop-color="rgb(232,238,247)" offset="0%"/>
        <stop stop-opacity="1" stop-color="rgb(183,201,227)" offset="100%"/>
      </linearGradient>
      <linearGradient x1="948.3806" gradientUnits="userSpaceOnUse" x2="1095.3806" y1="181.6415" y2="216.6415" id="linearGradient23" spreadMethod="reflect">
        <stop stop-opacity="1" stop-color="rgb(232,238,247)" offset="0%"/>
        <stop stop-opacity="1" stop-color="rgb(183,201,227)" offset="100%"/>
      </linearGradient>
      <linearGradient x1="1127.9286" gradientUnits="userSpaceOnUse" x2="1274.9286" y1="181.6415" y2="216.6415" id="linearGradient24" spreadMethod="reflect">
        <stop stop-opacity="1" stop-color="rgb(232,238,247)" offset="0%"/>
        <stop stop-opacity="1" stop-color="rgb(183,201,227)" offset="100%"/>
      </linearGradient>
      <linearGradient x1="1190.6285" gradientUnits="userSpaceOnUse" x2="1212.2285" y1="263.5415" y2="274.7415" id="linearGradient25" spreadMethod="reflect">
        <stop stop-opacity="1" stop-color="rgb(232,238,247)" offset="0%"/>
        <stop stop-opacity="1" stop-color="rgb(183,201,227)" offset="100%"/>
      </linearGradient>
      <linearGradient x1="1161.4286" gradientUnits="userSpaceOnUse" x2="1241.4286" y1="89.5" y2="129.5" id="linearGradient26" spreadMethod="reflect">
        <stop stop-opacity="1" stop-color="rgb(232,238,247)" offset="0%"/>
        <stop stop-opacity="1" stop-color="rgb(183,201,227)" offset="100%"/>
      </linearGradient>
      <linearGradient x1="1493.5511" gradientUnits="userSpaceOnUse" x2="1612.7512" y1="183.0915" y2="215.1915" id="linearGradient27" spreadMethod="reflect">
        <stop stop-opacity="1" stop-color="rgb(232,238,247)" offset="0%"/>
        <stop stop-opacity="1" stop-color="rgb(183,201,227)" offset="100%"/>
      </linearGradient>
      <linearGradient x1="1542.3512" gradientUnits="userSpaceOnUse" x2="1563.9512" y1="263.5415" y2="274.7415" id="linearGradient28" spreadMethod="reflect">
        <stop stop-opacity="1" stop-color="rgb(232,238,247)" offset="0%"/>
        <stop stop-opacity="1" stop-color="rgb(183,201,227)" offset="100%"/>
      </linearGradient>
      <linearGradient x1="1503.3512" gradientUnits="userSpaceOnUse" x2="1602.9512" y1="85.404" y2="133.596" id="linearGradient29" spreadMethod="reflect">
        <stop stop-opacity="1" stop-color="rgb(232,238,247)" offset="0%"/>
        <stop stop-opacity="1" stop-color="rgb(183,201,227)" offset="100%"/>
      </linearGradient>
      <clipPath clipPathUnits="userSpaceOnUse" id="clipPath1">
        <path d="M0 0 L1325 0 L1325 498 L0 498 L0 0 Z"/>
      </clipPath>
      <clipPath clipPathUnits="userSpaceOnUse" id="clipPath2">
        <path d="M943 7 L2268 7 L2268 505 L943 505 L943 7 Z"/>
      </clipPath>
    </defs>
    <g fill="white" text-rendering="geometricPrecision" shape-rendering="geometricPrecision" transform="translate(-943,-7)" stroke="white">
      <rect x="943" width="1325" height="498" y="7" clip-path="url(#clipPath2)" stroke="none"/>
    </g>
    <g fill="rgb(255,204,0)" text-rendering="geometricPrecision" shape-rendering="geometricPrecision" transform="matrix(1,0,0,1,-943,-7)" stroke="rgb(255,204,0)">
      <path d="M2075 14 L2170 14 L2170 29 L2185 29 L2185 46 L2075 46 Z" stroke="none" clip-path="url(#clipPath2)"/>
      <path fill="white" d="M2170 14 L2170 29 L2185 29 Z" clip-path="url(#clipPath2)" fill-rule="evenodd" stroke="none"/>
    </g>
    <g text-rendering="geometricPrecision" stroke-miterlimit="1.45" shape-rendering="geometricPrecision" transform="matrix(1,0,0,1,-943,-7)" stroke-linecap="butt">
      <path fill="none" d="M2075 14 L2170 14 L2170 29 L2185 29 L2185 46 L2075 46 Z" clip-path="url(#clipPath2)"/>
      <path fill="none" d="M2170 14 L2170 29 L2185 29 Z" clip-path="url(#clipPath2)" fill-rule="evenodd"/>
      <text x="2091.3135" xml:space="preserve" y="27.3633" clip-path="url(#clipPath2)" font-family="sans-serif" stroke="none">Callback State</text>
      <text x="2113.3242" xml:space="preserve" y="42.0645" clip-path="url(#clipPath2)" font-family="sans-serif" stroke="none">Action</text>
    </g>
    <g fill="rgb(255,204,0)" text-rendering="geometricPrecision" shape-rendering="geometricPrecision" transform="matrix(1,0,0,1,-943,-7)" stroke="rgb(255,204,0)">
      <path d="M1895 14 L1990 14 L1990 29 L2005 29 L2005 46 L1895 46 Z" stroke="none" clip-path="url(#clipPath2)"/>
      <path fill="white" d="M1990 14 L1990 29 L2005 29 Z" clip-path="url(#clipPath2)" fill-rule="evenodd" stroke="none"/>
    </g>
    <g text-rendering="geometricPrecision" stroke-miterlimit="1.45" shape-rendering="geometricPrecision" transform="matrix(1,0,0,1,-943,-7)" stroke-linecap="butt">
      <path fill="none" d="M1895 14 L1990 14 L1990 29 L2005 29 L2005 46 L1895 46 Z" clip-path="url(#clipPath2)"/>
      <path fill="none" d="M1990 14 L1990 29 L2005 29 Z" clip-path="url(#clipPath2)" fill-rule="evenodd"/>
      <text x="1911.3135" xml:space="preserve" y="27.3633" clip-path="url(#clipPath2)" font-family="sans-serif" stroke="none">Callback State</text>
      <text x="1923.6562" xml:space="preserve" y="42.0645" clip-path="url(#clipPath2)" font-family="sans-serif" stroke="none">Transition</text>
    </g>
    <g fill="url(#linearGradient1)" text-rendering="geometricPrecision" shape-rendering="geometricPrecision" transform="matrix(1,0,0,1,-943,-7)" stroke="url(#linearGradient1)">
      <path d="M1848.592 20.9 L1859.7921 20.9 L1859.7921 26.5 L1854.192 32.1 L1848.592 26.5 Z" stroke="none" clip-path="url(#clipPath2)"/>
    </g>
    <g text-rendering="geometricPrecision" stroke-miterlimit="1.45" shape-rendering="geometricPrecision" transform="matrix(1,0,0,1,-943,-7)" stroke-linecap="butt">
      <path fill="none" d="M1848.592 20.9 L1859.7921 20.9 L1859.7921 26.5 L1854.192 32.1 L1848.592 26.5 Z" clip-path="url(#clipPath2)"/>
    </g>
    <g fill="url(#linearGradient2)" text-rendering="geometricPrecision" shape-rendering="geometricPrecision" transform="matrix(1,0,0,1,-943,-7)" stroke="url(#linearGradient2)">
      <path d="M2025.7925 20.9 L2036.9924 20.9 L2036.9924 26.5 L2031.3925 32.1 L2025.7925 26.5 Z" stroke="none" clip-path="url(#clipPath2)"/>
    </g>
    <g text-rendering="geometricPrecision" stroke-miterlimit="1.45" shape-rendering="geometricPrecision" transform="matrix(1,0,0,1,-943,-7)" stroke-linecap="butt">
      <path fill="none" d="M2025.7925 20.9 L2036.9924 20.9 L2036.9924 26.5 L2031.3925 32.1 L2025.7925 26.5 Z" clip-path="url(#clipPath2)"/>
    </g>
    <g fill="url(#linearGradient3)" text-rendering="geometricPrecision" shape-rendering="geometricPrecision" transform="matrix(1,0,0,1,-943,-7)" stroke="url(#linearGradient3)">
      <path d="M1848.592 193.5415 L1859.7921 193.5415 L1859.7921 199.1415 L1854.192 204.7415 L1848.592 199.1415 Z" stroke="none" clip-path="url(#clipPath2)"/>
    </g>
    <g text-rendering="geometricPrecision" stroke-miterlimit="1.45" shape-rendering="geometricPrecision" transform="matrix(1,0,0,1,-943,-7)" stroke-linecap="butt">
      <path fill="none" d="M1848.592 193.5415 L1859.7921 193.5415 L1859.7921 199.1415 L1854.192 204.7415 L1848.592 199.1415 Z" clip-path="url(#clipPath2)"/>
    </g>
    <g fill="url(#linearGradient4)" text-rendering="geometricPrecision" shape-rendering="geometricPrecision" transform="matrix(1,0,0,1,-943,-7)" stroke="url(#linearGradient4)">
      <path d="M1780.592 83 L1927.7921 83 L1927.7921 136 L1780.592 136 Z" stroke="none" clip-path="url(#clipPath2)"/>
    </g>
    <g text-rendering="geometricPrecision" stroke-miterlimit="1.45" shape-rendering="geometricPrecision" transform="matrix(1,0,0,1,-943,-7)" stroke-linecap="butt">
      <path fill="none" d="M1780.592 83 L1927.7921 83 L1927.7921 136 L1780.592 136 Z" clip-path="url(#clipPath2)"/>
      <text x="1822.5016" xml:space="preserve" y="106.8633" clip-path="url(#clipPath2)" font-family="sans-serif" stroke="none">open job for</text>
      <text x="1791.1598" xml:space="preserve" y="121.5645" clip-path="url(#clipPath2)" font-family="sans-serif" stroke="none">current collection object</text>
    </g>
    <g fill="url(#linearGradient5)" text-rendering="geometricPrecision" shape-rendering="geometricPrecision" transform="matrix(1,0,0,1,-943,-7)" stroke="url(#linearGradient5)">
      <path d="M2025.7925 193.5415 L2036.9924 193.5415 L2036.9924 199.1415 L2031.3925 204.7415 L2025.7925 199.1415 Z" stroke="none" clip-path="url(#clipPath2)"/>
    </g>
    <g text-rendering="geometricPrecision" stroke-miterlimit="1.45" shape-rendering="geometricPrecision" transform="matrix(1,0,0,1,-943,-7)" stroke-linecap="butt">
      <path fill="none" d="M2025.7925 193.5415 L2036.9924 193.5415 L2036.9924 199.1415 L2031.3925 204.7415 L2025.7925 199.1415 Z" clip-path="url(#clipPath2)"/>
    </g>
    <g fill="rgb(255,204,0)" text-rendering="geometricPrecision" shape-rendering="geometricPrecision" transform="matrix(1,0,0,1,-943,-7)" stroke="rgb(255,204,0)">
      <path d="M1865.3539 140.5415 L1949.9539 140.5415 L1949.9539 155.5415 L1964.9539 155.5415 L1964.9539 188.7335 L1865.3539 188.7335 Z" stroke="none" clip-path="url(#clipPath2)"/>
      <path fill="white" d="M1949.9539 140.5415 L1949.9539 155.5415 L1964.9539 155.5415 Z" clip-path="url(#clipPath2)" fill-rule="evenodd" stroke="none"/>
    </g>
    <g text-rendering="geometricPrecision" stroke-miterlimit="1.45" shape-rendering="geometricPrecision" transform="matrix(1,0,0,1,-943,-7)" stroke-linecap="butt">
      <path fill="none" d="M1865.3539 140.5415 L1949.9539 140.5415 L1949.9539 155.5415 L1964.9539 155.5415 L1964.9539 188.7335 L1865.3539 188.7335 Z" clip-path="url(#clipPath2)"/>
      <path fill="none" d="M1949.9539 140.5415 L1949.9539 155.5415 L1964.9539 155.5415 Z" clip-path="url(#clipPath2)" fill-rule="evenodd"/>
      <text x="1882.1393" xml:space="preserve" y="154.6502" clip-path="url(#clipPath2)" font-family="sans-serif" stroke="none">for example:</text>
      <text x="1882.4703" xml:space="preserve" y="169.3513" clip-path="url(#clipPath2)" font-family="sans-serif" stroke="none">take picture </text>
      <text x="1891.4821" xml:space="preserve" y="184.0525" clip-path="url(#clipPath2)" font-family="sans-serif" stroke="none">with cam</text>
    </g>
    <g fill="url(#linearGradient6)" text-rendering="geometricPrecision" shape-rendering="geometricPrecision" transform="matrix(1,0,0,1,-943,-7)" stroke="url(#linearGradient6)">
      <circle r="13.6" clip-path="url(#clipPath2)" cx="1697.952" cy="26.5" stroke="none"/>
    </g>
    <g text-rendering="geometricPrecision" stroke-miterlimit="1.45" shape-rendering="geometricPrecision" transform="matrix(1,0,0,1,-943,-7)" stroke-linecap="butt">
      <circle fill="none" r="13.6" clip-path="url(#clipPath2)" cx="1697.952" cy="26.5"/>
    </g>
    <g fill="url(#linearGradient7)" text-rendering="geometricPrecision" shape-rendering="geometricPrecision" transform="matrix(1,0,0,1,-943,-7)" stroke="url(#linearGradient7)">
      <rect x="1657.952" width="80" height="40" y="179.1415" clip-path="url(#clipPath2)" stroke="none"/>
    </g>
    <g text-rendering="geometricPrecision" stroke-miterlimit="1.45" shape-rendering="geometricPrecision" transform="matrix(1,0,0,1,-943,-7)" stroke-linecap="butt">
      <rect fill="none" x="1657.952" width="80" height="40" y="179.1415" clip-path="url(#clipPath2)"/>
      <path fill="none" d="M1667.952 179.1415 L1667.952 219.1415 M1727.952 179.1415 L1727.952 219.1415 M1667.952 179.1415 Z" clip-path="url(#clipPath2)"/>
      <text x="1670.2694" xml:space="preserve" y="196.5048" clip-path="url(#clipPath2)" font-family="sans-serif" stroke="none">transition_</text>
      <text x="1681.9413" xml:space="preserve" y="211.2059" clip-path="url(#clipPath2)" font-family="sans-serif" stroke="none">action</text>
    </g>
    <g fill="url(#linearGradient8)" text-rendering="geometricPrecision" shape-rendering="geometricPrecision" transform="matrix(1,0,0,1,-943,-7)" stroke="url(#linearGradient8)">
      <path d="M2188.9929 20.9 L2200.1929 20.9 L2200.1929 26.5 L2194.5928 32.1 L2188.9929 26.5 Z" stroke="none" clip-path="url(#clipPath2)"/>
    </g>
    <g text-rendering="geometricPrecision" stroke-miterlimit="1.45" shape-rendering="geometricPrecision" transform="matrix(1,0,0,1,-943,-7)" stroke-linecap="butt">
      <path fill="none" d="M2188.9929 20.9 L2200.1929 20.9 L2200.1929 26.5 L2194.5928 32.1 L2188.9929 26.5 Z" clip-path="url(#clipPath2)"/>
    </g>
    <g fill="url(#linearGradient9)" text-rendering="geometricPrecision" shape-rendering="geometricPrecision" transform="matrix(1,0,0,1,-943,-7)" stroke="url(#linearGradient9)">
      <path d="M2126.9321 183.0915 L2262.2537 183.0915 L2262.2537 215.1915 L2126.9321 215.1915 Z" stroke="none" clip-path="url(#clipPath2)"/>
    </g>
    <g text-rendering="geometricPrecision" stroke-miterlimit="1.45" shape-rendering="geometricPrecision" transform="matrix(1,0,0,1,-943,-7)" stroke-linecap="butt">
      <path fill="none" d="M2126.9321 183.0915 L2262.2537 183.0915 L2262.2537 215.1915 L2126.9321 215.1915 Z" clip-path="url(#clipPath2)"/>
      <text x="2130.2275" xml:space="preserve" y="196.5048" clip-path="url(#clipPath2)" font-family="sans-serif" stroke="none">increment state counter/</text>
      <text x="2153.5654" xml:space="preserve" y="211.2059" clip-path="url(#clipPath2)" font-family="sans-serif" stroke="none">go to next state</text>
    </g>
    <g fill="url(#linearGradient10)" text-rendering="geometricPrecision" shape-rendering="geometricPrecision" transform="matrix(1,0,0,1,-943,-7)" stroke="url(#linearGradient10)">
      <path d="M2134.9929 253.0915 L2254.1929 253.0915 L2254.1929 285.1915 L2134.9929 285.1915 Z" stroke="none" clip-path="url(#clipPath2)"/>
    </g>
    <g text-rendering="geometricPrecision" stroke-miterlimit="1.45" shape-rendering="geometricPrecision" transform="matrix(1,0,0,1,-943,-7)" stroke-linecap="butt">
      <path fill="none" d="M2134.9929 253.0915 L2254.1929 253.0915 L2254.1929 285.1915 L2134.9929 285.1915 Z" clip-path="url(#clipPath2)"/>
      <text x="2157.9102" xml:space="preserve" y="266.5048" clip-path="url(#clipPath2)" font-family="sans-serif" stroke="none">check if state </text>
      <text x="2145.5674" xml:space="preserve" y="281.2059" clip-path="url(#clipPath2)" font-family="sans-serif" stroke="none">overflow and reset</text>
    </g>
    <g fill="url(#linearGradient11)" text-rendering="geometricPrecision" shape-rendering="geometricPrecision" transform="matrix(1,0,0,1,-943,-7)" stroke="url(#linearGradient11)">
      <path d="M2134.9929 93.45 L2254.1929 93.45 L2254.1929 125.55 L2134.9929 125.55 Z" stroke="none" clip-path="url(#clipPath2)"/>
    </g>
    <g text-rendering="geometricPrecision" stroke-miterlimit="1.45" shape-rendering="geometricPrecision" transform="matrix(1,0,0,1,-943,-7)" stroke-linecap="butt">
      <path fill="none" d="M2134.9929 93.45 L2254.1929 93.45 L2254.1929 125.55 L2134.9929 125.55 Z" clip-path="url(#clipPath2)"/>
      <text x="2143.5664" xml:space="preserve" y="106.8633" clip-path="url(#clipPath2)" font-family="sans-serif" stroke="none">transition collection</text>
      <text x="2178.582" xml:space="preserve" y="121.5645" clip-path="url(#clipPath2)" font-family="sans-serif" stroke="none">object</text>
    </g>
    <g fill="url(#linearGradient12)" text-rendering="geometricPrecision" shape-rendering="geometricPrecision" transform="matrix(1,0,0,1,-943,-7)" stroke="url(#linearGradient12)">
      <path d="M2134.9929 323.0915 L2254.1929 323.0915 L2254.1929 355.1915 L2134.9929 355.1915 Z" stroke="none" clip-path="url(#clipPath2)"/>
    </g>
    <g text-rendering="geometricPrecision" stroke-miterlimit="1.45" shape-rendering="geometricPrecision" transform="matrix(1,0,0,1,-943,-7)" stroke-linecap="butt">
      <path fill="none" d="M2134.9929 323.0915 L2254.1929 323.0915 L2254.1929 355.1915 L2134.9929 355.1915 Z" clip-path="url(#clipPath2)"/>
      <text x="2141.2256" xml:space="preserve" y="336.5048" clip-path="url(#clipPath2)" font-family="sans-serif" stroke="none">set current data and</text>
      <text x="2141.5713" xml:space="preserve" y="351.2059" clip-path="url(#clipPath2)" font-family="sans-serif" stroke="none"> time buffer for plots</text>
    </g>
    <g fill="url(#linearGradient13)" text-rendering="geometricPrecision" shape-rendering="geometricPrecision" transform="matrix(1,0,0,1,-943,-7)" stroke="url(#linearGradient13)">
      <path d="M2188.9929 403.5415 L2200.1929 403.5415 L2200.1929 409.1415 L2194.5928 414.7415 L2188.9929 409.1415 Z" stroke="none" clip-path="url(#clipPath2)"/>
    </g>
    <g text-rendering="geometricPrecision" stroke-miterlimit="1.45" shape-rendering="geometricPrecision" transform="matrix(1,0,0,1,-943,-7)" stroke-linecap="butt">
      <path fill="none" d="M2188.9929 403.5415 L2200.1929 403.5415 L2200.1929 409.1415 L2194.5928 414.7415 L2188.9929 409.1415 Z" clip-path="url(#clipPath2)"/>
    </g>
    <g fill="url(#linearGradient14)" text-rendering="geometricPrecision" shape-rendering="geometricPrecision" transform="matrix(1,0,0,1,-943,-7)" stroke="url(#linearGradient14)">
      <path d="M1957.7925 83 L2104.9924 83 L2104.9924 136 L1957.7925 136 Z" stroke="none" clip-path="url(#clipPath2)"/>
    </g>
    <g text-rendering="geometricPrecision" stroke-miterlimit="1.45" shape-rendering="geometricPrecision" transform="matrix(1,0,0,1,-943,-7)" stroke-linecap="butt">
      <path fill="none" d="M1957.7925 83 L2104.9924 83 L2104.9924 136 L1957.7925 136 Z" clip-path="url(#clipPath2)"/>
      <text x="1980.0321" xml:space="preserve" y="114.2139" clip-path="url(#clipPath2)" font-family="sans-serif" stroke="none">set transition signal</text>
    </g>
    <g fill="rgb(255,204,0)" text-rendering="geometricPrecision" shape-rendering="geometricPrecision" transform="matrix(1,0,0,1,-943,-7)" stroke="rgb(255,204,0)">
      <path d="M1721.5521 17 L1827.3021 17 L1827.3021 31.25 L1841.5521 31.25 L1841.5521 36 L1721.5521 36 Z" stroke="none" clip-path="url(#clipPath2)"/>
      <path fill="white" d="M1827.3021 17 L1827.3021 31.25 L1841.5521 31.25 Z" clip-path="url(#clipPath2)" fill-rule="evenodd" stroke="none"/>
    </g>
    <g text-rendering="geometricPrecision" stroke-miterlimit="1.45" shape-rendering="geometricPrecision" transform="matrix(1,0,0,1,-943,-7)" stroke-linecap="butt">
      <path fill="none" d="M1721.5521 17 L1827.3021 17 L1827.3021 31.25 L1841.5521 31.25 L1841.5521 36 L1721.5521 36 Z" clip-path="url(#clipPath2)"/>
      <path fill="none" d="M1827.3021 17 L1827.3021 31.25 L1841.5521 31.25 Z" clip-path="url(#clipPath2)" fill-rule="evenodd"/>
      <text x="1737.8588" xml:space="preserve" y="31.2139" clip-path="url(#clipPath2)" font-family="sans-serif" stroke="none">transition_action</text>
    </g>
    <g fill="rgb(255,204,0)" text-rendering="geometricPrecision" shape-rendering="geometricPrecision" transform="matrix(1,0,0,1,-943,-7)" stroke="rgb(255,204,0)">
      <path d="M1563.9512 17 L1669.7012 17 L1669.7012 31.25 L1683.9512 31.25 L1683.9512 36 L1563.9512 36 Z" stroke="none" clip-path="url(#clipPath2)"/>
      <path fill="white" d="M1669.7012 17 L1669.7012 31.25 L1683.9512 31.25 Z" clip-path="url(#clipPath2)" fill-rule="evenodd" stroke="none"/>
    </g>
    <g text-rendering="geometricPrecision" stroke-miterlimit="1.45" shape-rendering="geometricPrecision" transform="matrix(1,0,0,1,-943,-7)" stroke-linecap="butt">
      <path fill="none" d="M1563.9512 17 L1669.7012 17 L1669.7012 31.25 L1683.9512 31.25 L1683.9512 36 L1563.9512 36 Z" clip-path="url(#clipPath2)"/>
      <path fill="none" d="M1669.7012 17 L1669.7012 31.25 L1683.9512 31.25 Z" clip-path="url(#clipPath2)" fill-rule="evenodd"/>
      <text x="1596.2656" xml:space="preserve" y="31.2139" clip-path="url(#clipPath2)" font-family="sans-serif" stroke="none">main_loop</text>
    </g>
    <g fill="url(#linearGradient15)" text-rendering="geometricPrecision" shape-rendering="geometricPrecision" transform="matrix(1,0,0,1,-943,-7)" stroke="url(#linearGradient15)">
      <path d="M1697.952 88.5597 L1750.592 109.5 L1697.952 130.4403 L1645.312 109.5 Z" stroke="none" clip-path="url(#clipPath2)"/>
    </g>
    <g text-rendering="geometricPrecision" stroke-miterlimit="1.45" shape-rendering="geometricPrecision" transform="matrix(1,0,0,1,-943,-7)" stroke-linecap="butt">
      <path fill="none" d="M1697.952 88.5597 L1750.592 109.5 L1697.952 130.4403 L1645.312 109.5 Z" clip-path="url(#clipPath2)"/>
      <text x="1656.2626" xml:space="preserve" y="106.8633" clip-path="url(#clipPath2)" font-family="sans-serif" stroke="none">transition signal</text>
      <text x="1689.9481" xml:space="preserve" y="121.5645" clip-path="url(#clipPath2)" font-family="sans-serif" stroke="none">set</text>
    </g>
    <g fill="url(#linearGradient16)" text-rendering="geometricPrecision" shape-rendering="geometricPrecision" transform="matrix(1,0,0,1,-943,-7)" stroke="url(#linearGradient16)">
      <path d="M1697.952 249.1415 L1753.152 269.1415 L1697.952 289.1415 L1642.752 269.1415 Z" stroke="none" clip-path="url(#clipPath2)"/>
    </g>
    <g text-rendering="geometricPrecision" stroke-miterlimit="1.45" shape-rendering="geometricPrecision" transform="matrix(1,0,0,1,-943,-7)" stroke-linecap="butt">
      <path fill="none" d="M1697.952 249.1415 L1753.152 269.1415 L1697.952 289.1415 L1642.752 269.1415 Z" clip-path="url(#clipPath2)"/>
      <text x="1655.6005" xml:space="preserve" y="266.5048" clip-path="url(#clipPath2)" font-family="sans-serif" stroke="none">check if passive</text>
      <text x="1649.9257" xml:space="preserve" y="281.2059" clip-path="url(#clipPath2)" font-family="sans-serif" stroke="none">sampling this loop</text>
    </g>
    <g fill="url(#linearGradient17)" text-rendering="geometricPrecision" shape-rendering="geometricPrecision" transform="matrix(1,0,0,1,-943,-7)" stroke="url(#linearGradient17)">
      <rect x="1657.952" width="80" height="40" y="319.1415" clip-path="url(#clipPath2)" stroke="none"/>
    </g>
    <g text-rendering="geometricPrecision" stroke-miterlimit="1.45" shape-rendering="geometricPrecision" transform="matrix(1,0,0,1,-943,-7)" stroke-linecap="butt">
      <rect fill="none" x="1657.952" width="80" height="40" y="319.1415" clip-path="url(#clipPath2)"/>
      <path fill="none" d="M1667.952 319.1415 L1667.952 359.1415 M1727.952 319.1415 L1727.952 359.1415 M1667.952 319.1415 Z" clip-path="url(#clipPath2)"/>
      <text x="1674.2714" xml:space="preserve" y="336.5048" clip-path="url(#clipPath2)" font-family="sans-serif" stroke="none">passive_</text>
      <text x="1678.6102" xml:space="preserve" y="351.2059" clip-path="url(#clipPath2)" font-family="sans-serif" stroke="none">sample</text>
    </g>
    <g fill="url(#linearGradient18)" text-rendering="geometricPrecision" shape-rendering="geometricPrecision" transform="matrix(1,0,0,1,-943,-7)" stroke="url(#linearGradient18)">
      <rect x="1651.872" width="92.16" height="40" y="389.1415" clip-path="url(#clipPath2)" stroke="none"/>
    </g>
    <g text-rendering="geometricPrecision" stroke-miterlimit="1.45" shape-rendering="geometricPrecision" transform="matrix(1,0,0,1,-943,-7)" stroke-linecap="butt">
      <rect fill="none" x="1651.872" width="92.16" height="40" y="389.1415" clip-path="url(#clipPath2)"/>
      <path fill="none" d="M1661.8719 389.1415 L1661.8719 429.1415 M1734.032 389.1415 L1734.032 429.1415 M1661.8719 389.1415 Z" clip-path="url(#clipPath2)"/>
      <text x="1669.2704" xml:space="preserve" y="406.5048" clip-path="url(#clipPath2)" font-family="sans-serif" stroke="none">animate &amp; </text>
      <text x="1665.2684" xml:space="preserve" y="421.2059" clip-path="url(#clipPath2)" font-family="sans-serif" stroke="none">display slide</text>
    </g>
    <g fill="url(#linearGradient19)" text-rendering="geometricPrecision" shape-rendering="geometricPrecision" transform="matrix(1,0,0,1,-943,-7)" stroke="url(#linearGradient19)">
      <path d="M1657.952 459.1415 L1737.952 459.1415 L1737.952 499.1415 L1657.952 499.1415 Z" stroke="none" clip-path="url(#clipPath2)"/>
    </g>
    <g text-rendering="geometricPrecision" stroke-miterlimit="1.45" shape-rendering="geometricPrecision" transform="matrix(1,0,0,1,-943,-7)" stroke-linecap="butt">
      <path fill="none" d="M1657.952 459.1415 L1737.952 459.1415 L1737.952 499.1415 L1657.952 499.1415 Z" clip-path="url(#clipPath2)"/>
      <text x="1673.2723" xml:space="preserve" y="476.5048" clip-path="url(#clipPath2)" font-family="sans-serif" stroke="none">sleep for </text>
      <text x="1668.6024" xml:space="preserve" y="491.2059" clip-path="url(#clipPath2)" font-family="sans-serif" stroke="none">timespan n</text>
    </g>
    <g fill="url(#linearGradient20)" text-rendering="geometricPrecision" shape-rendering="geometricPrecision" transform="matrix(1,0,0,1,-943,-7)" stroke="url(#linearGradient20)">
      <path d="M1547.5511 20.9 L1558.7512 20.9 L1558.7512 26.5 L1553.1512 32.1 L1547.5511 26.5 Z" stroke="none" clip-path="url(#clipPath2)"/>
    </g>
    <g text-rendering="geometricPrecision" stroke-miterlimit="1.45" shape-rendering="geometricPrecision" transform="matrix(1,0,0,1,-943,-7)" stroke-linecap="butt">
      <path fill="none" d="M1547.5511 20.9 L1558.7512 20.9 L1558.7512 26.5 L1553.1512 32.1 L1547.5511 26.5 Z" clip-path="url(#clipPath2)"/>
    </g>
    <g fill="rgb(255,204,0)" text-rendering="geometricPrecision" shape-rendering="geometricPrecision" transform="matrix(1,0,0,1,-943,-7)" stroke="rgb(255,204,0)">
      <path d="M1410 17 L1515.75 17 L1515.75 31.25 L1530 31.25 L1530 36 L1410 36 Z" stroke="none" clip-path="url(#clipPath2)"/>
      <path fill="white" d="M1515.75 17 L1515.75 31.25 L1530 31.25 Z" clip-path="url(#clipPath2)" fill-rule="evenodd" stroke="none"/>
    </g>
    <g text-rendering="geometricPrecision" stroke-miterlimit="1.45" shape-rendering="geometricPrecision" transform="matrix(1,0,0,1,-943,-7)" stroke-linecap="butt">
      <path fill="none" d="M1410 17 L1515.75 17 L1515.75 31.25 L1530 31.25 L1530 36 L1410 36 Z" clip-path="url(#clipPath2)"/>
      <path fill="none" d="M1515.75 17 L1515.75 31.25 L1530 31.25 Z" clip-path="url(#clipPath2)" fill-rule="evenodd"/>
      <text x="1426.9775" xml:space="preserve" y="31.2139" clip-path="url(#clipPath2)" font-family="sans-serif" stroke="none">passive_sample</text>
    </g>
    <g fill="rgb(255,204,0)" text-rendering="geometricPrecision" shape-rendering="geometricPrecision" transform="matrix(1,0,0,1,-943,-7)" stroke="rgb(255,204,0)">
      <path d="M1048.16 16 L1156.84 16 L1156.84 31 L1171.84 31 L1171.84 44 L1048.16 44 Z" stroke="none" clip-path="url(#clipPath2)"/>
      <path fill="white" d="M1156.84 16 L1156.84 31 L1171.84 31 Z" clip-path="url(#clipPath2)" fill-rule="evenodd" stroke="none"/>
    </g>
    <g text-rendering="geometricPrecision" stroke-miterlimit="1.45" shape-rendering="geometricPrecision" transform="matrix(1,0,0,1,-943,-7)" stroke-linecap="butt">
      <path fill="none" d="M1048.16 16 L1156.84 16 L1156.84 31 L1171.84 31 L1171.84 44 L1048.16 44 Z" clip-path="url(#clipPath2)"/>
      <path fill="none" d="M1156.84 16 L1156.84 31 L1171.84 31 Z" clip-path="url(#clipPath2)" fill-rule="evenodd"/>
      <text x="1088.6543" xml:space="preserve" y="34.7139" clip-path="url(#clipPath2)" font-family="sans-serif" stroke="none">animate</text>
    </g>
    <g fill="url(#linearGradient21)" text-rendering="geometricPrecision" shape-rendering="geometricPrecision" transform="matrix(1,0,0,1,-943,-7)" stroke="url(#linearGradient21)">
      <path d="M1195.8286 20.9 L1207.0286 20.9 L1207.0286 26.5 L1201.4286 32.1 L1195.8286 26.5 Z" stroke="none" clip-path="url(#clipPath2)"/>
    </g>
    <g text-rendering="geometricPrecision" stroke-miterlimit="1.45" shape-rendering="geometricPrecision" transform="matrix(1,0,0,1,-943,-7)" stroke-linecap="butt">
      <path fill="none" d="M1195.8286 20.9 L1207.0286 20.9 L1207.0286 26.5 L1201.4286 32.1 L1195.8286 26.5 Z" clip-path="url(#clipPath2)"/>
    </g>
    <g fill="url(#linearGradient22)" text-rendering="geometricPrecision" shape-rendering="geometricPrecision" transform="matrix(1,0,0,1,-943,-7)" stroke="url(#linearGradient22)">
      <path d="M1311.9139 181.6415 L1459.1139 181.6415 L1459.1139 216.6415 L1311.9139 216.6415 Z" stroke="none" clip-path="url(#clipPath2)"/>
    </g>
    <g text-rendering="geometricPrecision" stroke-miterlimit="1.45" shape-rendering="geometricPrecision" transform="matrix(1,0,0,1,-943,-7)" stroke-linecap="butt">
      <path fill="none" d="M1311.9139 181.6415 L1459.1139 181.6415 L1459.1139 216.6415 L1311.9139 216.6415 Z" clip-path="url(#clipPath2)"/>
      <text x="1324.4856" xml:space="preserve" y="196.5048" clip-path="url(#clipPath2)" font-family="sans-serif" stroke="none">[passive] temperature: </text>
      <text x="1309.4768" xml:space="preserve" y="211.2059" clip-path="url(#clipPath2)" font-family="sans-serif" stroke="none">sample &amp; plot data over time</text>
    </g>
    <g fill="url(#linearGradient23)" text-rendering="geometricPrecision" shape-rendering="geometricPrecision" transform="matrix(1,0,0,1,-943,-7)" stroke="url(#linearGradient23)">
      <path d="M948.3806 181.6415 L1095.3806 181.6415 L1095.3806 216.6415 L948.3806 216.6415 Z" stroke="none" clip-path="url(#clipPath2)"/>
    </g>
    <g text-rendering="geometricPrecision" stroke-miterlimit="1.45" shape-rendering="geometricPrecision" transform="matrix(1,0,0,1,-943,-7)" stroke-linecap="butt">
      <path fill="none" d="M948.3806 181.6415 L1095.3806 181.6415 L1095.3806 216.6415 L948.3806 216.6415 Z" clip-path="url(#clipPath2)"/>
      <text x="950.5163" xml:space="preserve" y="196.5048" clip-path="url(#clipPath2)" font-family="sans-serif" stroke="none">[passive] pressure: sample</text>
      <text x="966.8522" xml:space="preserve" y="211.2059" clip-path="url(#clipPath2)" font-family="sans-serif" stroke="none">&amp; plot data over time</text>
    </g>
    <g fill="url(#linearGradient24)" text-rendering="geometricPrecision" shape-rendering="geometricPrecision" transform="matrix(1,0,0,1,-943,-7)" stroke="url(#linearGradient24)">
      <path d="M1127.9286 181.6415 L1274.9286 181.6415 L1274.9286 216.6415 L1127.9286 216.6415 Z" stroke="none" clip-path="url(#clipPath2)"/>
    </g>
    <g text-rendering="geometricPrecision" stroke-miterlimit="1.45" shape-rendering="geometricPrecision" transform="matrix(1,0,0,1,-943,-7)" stroke-linecap="butt">
      <path fill="none" d="M1127.9286 181.6415 L1274.9286 181.6415 L1274.9286 216.6415 L1127.9286 216.6415 Z" clip-path="url(#clipPath2)"/>
      <text x="1139.7382" xml:space="preserve" y="196.5048" clip-path="url(#clipPath2)" font-family="sans-serif" stroke="none">spectrometer: sample&amp;</text>
      <text x="1127.3807" xml:space="preserve" y="211.2059" clip-path="url(#clipPath2)" font-family="sans-serif" stroke="none">plot data over spectral band</text>
    </g>
    <g fill="url(#linearGradient25)" text-rendering="geometricPrecision" shape-rendering="geometricPrecision" transform="matrix(1,0,0,1,-943,-7)" stroke="url(#linearGradient25)">
      <path d="M1195.8286 263.5415 L1207.0286 263.5415 L1207.0286 269.1415 L1201.4286 274.7415 L1195.8286 269.1415 Z" stroke="none" clip-path="url(#clipPath2)"/>
    </g>
    <g text-rendering="geometricPrecision" stroke-miterlimit="1.45" shape-rendering="geometricPrecision" transform="matrix(1,0,0,1,-943,-7)" stroke-linecap="butt">
      <path fill="none" d="M1195.8286 263.5415 L1207.0286 263.5415 L1207.0286 269.1415 L1201.4286 274.7415 L1195.8286 269.1415 Z" clip-path="url(#clipPath2)"/>
    </g>
    <g fill="url(#linearGradient26)" text-rendering="geometricPrecision" shape-rendering="geometricPrecision" transform="matrix(1,0,0,1,-943,-7)" stroke="url(#linearGradient26)">
      <path d="M1201.4286 89.5 L1241.4286 109.5 L1201.4286 129.5 L1161.4286 109.5 Z" stroke="none" clip-path="url(#clipPath2)"/>
    </g>
    <g text-rendering="geometricPrecision" stroke-miterlimit="1.45" shape-rendering="geometricPrecision" transform="matrix(1,0,0,1,-943,-7)" stroke-linecap="butt">
      <path fill="none" d="M1201.4286 89.5 L1241.4286 109.5 L1201.4286 129.5 L1161.4286 109.5 Z" clip-path="url(#clipPath2)"/>
      <text x="1167.4149" xml:space="preserve" y="114.2139" clip-path="url(#clipPath2)" font-family="sans-serif" stroke="none">Switch: state</text>
    </g>
    <g fill="url(#linearGradient27)" text-rendering="geometricPrecision" shape-rendering="geometricPrecision" transform="matrix(1,0,0,1,-943,-7)" stroke="url(#linearGradient27)">
      <path d="M1493.5511 183.0915 L1612.7512 183.0915 L1612.7512 215.1915 L1493.5511 215.1915 Z" stroke="none" clip-path="url(#clipPath2)"/>
    </g>
    <g text-rendering="geometricPrecision" stroke-miterlimit="1.45" shape-rendering="geometricPrecision" transform="matrix(1,0,0,1,-943,-7)" stroke-linecap="butt">
      <path fill="none" d="M1493.5511 183.0915 L1612.7512 183.0915 L1612.7512 215.1915 L1493.5511 215.1915 Z" clip-path="url(#clipPath2)"/>
      <text x="1533.8094" xml:space="preserve" y="203.8553" clip-path="url(#clipPath2)" font-family="sans-serif" stroke="none">sample</text>
    </g>
    <g fill="url(#linearGradient28)" text-rendering="geometricPrecision" shape-rendering="geometricPrecision" transform="matrix(1,0,0,1,-943,-7)" stroke="url(#linearGradient28)">
      <path d="M1547.5511 263.5415 L1558.7512 263.5415 L1558.7512 269.1415 L1553.1512 274.7415 L1547.5511 269.1415 Z" stroke="none" clip-path="url(#clipPath2)"/>
    </g>
    <g text-rendering="geometricPrecision" stroke-miterlimit="1.45" shape-rendering="geometricPrecision" transform="matrix(1,0,0,1,-943,-7)" stroke-linecap="butt">
      <path fill="none" d="M1547.5511 263.5415 L1558.7512 263.5415 L1558.7512 269.1415 L1553.1512 274.7415 L1547.5511 269.1415 Z" clip-path="url(#clipPath2)"/>
    </g>
    <g fill="url(#linearGradient29)" text-rendering="geometricPrecision" shape-rendering="geometricPrecision" transform="matrix(1,0,0,1,-943,-7)" stroke="url(#linearGradient29)">
      <path d="M1553.1512 85.404 L1602.9512 109.5 L1553.1512 133.596 L1503.3512 109.5 Z" stroke="none" clip-path="url(#clipPath2)"/>
    </g>
    <g text-rendering="geometricPrecision" stroke-miterlimit="1.45" shape-rendering="geometricPrecision" transform="matrix(1,0,0,1,-943,-7)" stroke-linecap="butt">
      <path fill="none" d="M1553.1512 85.404 L1602.9512 109.5 L1553.1512 133.596 L1503.3512 109.5 Z" clip-path="url(#clipPath2)"/>
      <text x="1510.1288" xml:space="preserve" y="106.8633" clip-path="url(#clipPath2)" font-family="sans-serif" stroke="none">for each sensor:</text>
      <text x="1528.1405" xml:space="preserve" y="121.5645" clip-path="url(#clipPath2)" font-family="sans-serif" stroke="none">is active?</text>
    </g>
    <g text-rendering="geometricPrecision" stroke-miterlimit="1.45" shape-rendering="geometricPrecision" transform="matrix(1,0,0,1,-943,-7)" stroke-linecap="butt">
      <path fill="none" d="M1854.192 32.1 L1854.192 74.9503" clip-path="url(#clipPath2)"/>
      <path d="M1854.192 82.9503 L1859.192 70.9503 L1854.192 73.9503 L1849.192 70.9503 Z" clip-path="url(#clipPath2)" stroke="none"/>
      <path fill="none" d="M1854.192 136 L1854.192 185.5134" clip-path="url(#clipPath2)"/>
      <path d="M1854.192 193.5134 L1859.192 181.5134 L1854.192 184.5134 L1849.192 181.5134 Z" clip-path="url(#clipPath2)" stroke="none"/>
      <path fill="none" d="M2194.5928 215.2285 L2194.5928 245.0915" clip-path="url(#clipPath2)"/>
      <path d="M2194.5928 253.0915 L2199.5928 241.0915 L2194.5928 244.0915 L2189.5928 241.0915 Z" clip-path="url(#clipPath2)" stroke="none"/>
      <path fill="none" d="M2194.5928 32.1 L2194.5928 85.42" clip-path="url(#clipPath2)"/>
      <path d="M2194.5928 93.42 L2199.5928 81.42 L2194.5928 84.42 L2189.5928 81.42 Z" clip-path="url(#clipPath2)" stroke="none"/>
      <path fill="none" d="M2194.5928 125.5781 L2194.5928 175.0915" clip-path="url(#clipPath2)"/>
      <path d="M2194.5928 183.0915 L2199.5928 171.0915 L2194.5928 174.0915 L2189.5928 171.0915 Z" clip-path="url(#clipPath2)" stroke="none"/>
      <path fill="none" d="M2194.5928 285.1915 L2194.5928 315.0545" clip-path="url(#clipPath2)"/>
      <path d="M2194.5928 323.0545 L2199.5928 311.0545 L2194.5928 314.0545 L2189.5928 311.0545 Z" clip-path="url(#clipPath2)" stroke="none"/>
      <path fill="none" d="M2194.5928 355.1915 L2194.5928 395.4943" clip-path="url(#clipPath2)"/>
      <path d="M2194.5928 403.4943 L2199.5928 391.4943 L2194.5928 394.4943 L2189.5928 391.4943 Z" clip-path="url(#clipPath2)" stroke="none"/>
      <path fill="none" d="M2031.3925 32.1 L2031.3925 74.9503" clip-path="url(#clipPath2)"/>
      <path d="M2031.3925 82.9503 L2036.3925 70.9503 L2031.3925 73.9503 L2026.3925 70.9503 Z" clip-path="url(#clipPath2)" stroke="none"/>
      <path fill="none" d="M2031.3925 136 L2031.3925 185.5134" clip-path="url(#clipPath2)"/>
      <path d="M2031.3925 193.5134 L2036.3925 181.5134 L2031.3925 184.5134 L2026.3925 181.5134 Z" clip-path="url(#clipPath2)" stroke="none"/>
      <path fill="none" d="M1697.952 40.1 L1697.952 80.5597" clip-path="url(#clipPath2)"/>
      <path d="M1697.952 88.5597 L1702.952 76.5597 L1697.952 79.5597 L1692.952 76.5597 Z" clip-path="url(#clipPath2)" stroke="none"/>
      <path fill="none" d="M1697.952 130.4403 L1697.952 171.0939" clip-path="url(#clipPath2)"/>
      <path d="M1697.952 179.0939 L1702.952 167.0939 L1697.952 170.0939 L1692.952 167.0939 Z" clip-path="url(#clipPath2)" stroke="none"/>
      <text x="1701.952" xml:space="preserve" y="154.6298" clip-path="url(#clipPath2)" font-family="sans-serif" stroke="none">True</text>
      <path fill="none" d="M1697.952 219.1415 L1697.952 241.1415" clip-path="url(#clipPath2)"/>
      <path d="M1697.952 249.1415 L1702.952 237.1415 L1697.952 240.1415 L1692.952 237.1415 Z" clip-path="url(#clipPath2)" stroke="none"/>
      <path fill="none" d="M1697.952 289.1415 L1697.952 311.1122" clip-path="url(#clipPath2)"/>
      <path d="M1697.952 319.1122 L1702.952 307.1122 L1697.952 310.1122 L1692.952 307.1122 Z" clip-path="url(#clipPath2)" stroke="none"/>
      <path fill="none" d="M1753.152 269.1415 L1768.1523 269.1415 L1768.1523 409.1415 L1752.0791 409.1415" clip-path="url(#clipPath2)"/>
      <path d="M1744.0791 409.1415 L1756.0791 414.1415 L1753.0791 409.1415 L1756.0791 404.1415 Z" clip-path="url(#clipPath2)" stroke="none"/>
      <path fill="none" d="M1697.952 359.1415 L1697.952 381.1122" clip-path="url(#clipPath2)"/>
      <path d="M1697.952 389.1122 L1702.952 377.1122 L1697.952 380.1122 L1692.952 377.1122 Z" clip-path="url(#clipPath2)" stroke="none"/>
      <path fill="none" d="M1697.952 429.1415 L1697.952 451.1415" clip-path="url(#clipPath2)"/>
      <path d="M1697.952 459.1415 L1702.952 447.1415 L1697.952 450.1415 L1692.952 447.1415 Z" clip-path="url(#clipPath2)" stroke="none"/>
      <path fill="none" d="M1657.952 479.1415 L1627.7516 479.1415 L1627.7516 199.1415 L1649.9225 199.1415" clip-path="url(#clipPath2)"/>
      <path d="M1657.9225 199.1415 L1645.9225 194.1415 L1648.9225 199.1415 L1645.9225 204.1415 Z" clip-path="url(#clipPath2)" stroke="none"/>
      <path fill="none" d="M1385.5139 216.6671 L1385.5139 269.1415 L1215.0533 269.1415" clip-path="url(#clipPath2)"/>
      <path d="M1207.0533 269.1415 L1219.0533 274.1415 L1216.0533 269.1415 L1219.0533 264.1415 Z" clip-path="url(#clipPath2)" stroke="none"/>
      <path fill="none" d="M1021.8806 216.6671 L1021.8806 269.1415 L1187.8048 269.1415" clip-path="url(#clipPath2)"/>
      <path d="M1195.8048 269.1415 L1183.8048 264.1415 L1186.8048 269.1415 L1183.8048 274.1415 Z" clip-path="url(#clipPath2)" stroke="none"/>
      <path fill="none" d="M1201.4286 216.6873 L1201.4286 255.4957" clip-path="url(#clipPath2)"/>
      <path d="M1201.4286 263.4957 L1206.4286 251.4957 L1201.4286 254.4957 L1196.4286 251.4957 Z" clip-path="url(#clipPath2)" stroke="none"/>
      <path fill="none" d="M1201.4286 32.1 L1201.4286 81.5" clip-path="url(#clipPath2)"/>
      <path d="M1201.4286 89.5 L1206.4286 77.5 L1201.4286 80.5 L1196.4286 77.5 Z" clip-path="url(#clipPath2)" stroke="none"/>
      <path fill="none" d="M1241.4637 109.5 L1385.5139 109.5 L1385.5139 173.6415" clip-path="url(#clipPath2)"/>
      <path d="M1385.5139 181.6415 L1390.5139 169.6415 L1385.5139 172.6415 L1380.5139 169.6415 Z" clip-path="url(#clipPath2)" stroke="none"/>
      <path fill="none" d="M1161.4286 109.5 L1021.8806 109.5 L1021.8806 173.6415" clip-path="url(#clipPath2)"/>
      <path d="M1021.8806 181.6415 L1026.8806 169.6415 L1021.8806 172.6415 L1016.8806 169.6415 Z" clip-path="url(#clipPath2)" stroke="none"/>
      <path fill="none" d="M1201.4286 129.5 L1201.4286 173.6415" clip-path="url(#clipPath2)"/>
      <path d="M1201.4286 181.6415 L1206.4286 169.6415 L1201.4286 172.6415 L1196.4286 169.6415 Z" clip-path="url(#clipPath2)" stroke="none"/>
      <path fill="none" d="M1553.1512 215.2387 L1553.1512 255.4943" clip-path="url(#clipPath2)"/>
      <path d="M1553.1512 263.4943 L1558.1512 251.4943 L1553.1512 254.4943 L1548.1512 251.4943 Z" clip-path="url(#clipPath2)" stroke="none"/>
      <path fill="none" d="M1553.1512 32.1 L1553.1512 77.404" clip-path="url(#clipPath2)"/>
      <path d="M1553.1512 85.404 L1558.1512 73.404 L1553.1512 76.404 L1548.1512 73.404 Z" clip-path="url(#clipPath2)" stroke="none"/>
      <path fill="none" d="M1503.3512 109.5 L1487.8512 109.5 L1487.8512 69.904 L1528.2512 69.904 L1528.2512 89.4352" clip-path="url(#clipPath2)"/>
      <path d="M1528.2512 97.4352 L1533.2512 85.4352 L1528.2512 88.4352 L1523.2512 85.4352 Z" clip-path="url(#clipPath2)" stroke="none"/>
      <path fill="none" d="M1553.1512 133.596 L1553.1512 175.0915" clip-path="url(#clipPath2)"/>
      <path d="M1553.1512 183.0915 L1558.1512 171.0915 L1553.1512 174.0915 L1548.1512 171.0915 Z" clip-path="url(#clipPath2)" stroke="none"/>
      <text x="1524.4774" xml:space="preserve" y="157.7854" clip-path="url(#clipPath2)" font-family="sans-serif" stroke="none">True</text>
    </g>
  </g>
</svg>
